<?xml version="1.0" standalone="no"?><!DOCTYPE svg PUBLIC "-//W3C//DTD SVG 1.1//EN" "http://www.w3.org/Graphics/SVG/1.1/DTD/svg11.dtd"><svg t="1607071799615" class="icon" viewBox="0 0 1024 1024" version="1.1" xmlns="http://www.w3.org/2000/svg" p-id="5142" xmlns:xlink="http://www.w3.org/1999/xlink" width="200" height="200"><defs><style type="text/css"></style></defs><path d="M460 954.8c-15.7 0-31.4-4-45.4-12.1l-304.8-176c-28-16.2-45.4-46.3-45.4-78.7V336c0-32.4 17.4-62.6 45.4-78.7l304.9-176c28-16.2 62.8-16.2 90.8 0l304.8 176c15.3 8.8 20.5 28.4 11.7 43.7-8.8 15.3-28.4 20.5-43.7 11.7l-304.8-176c-8.3-4.8-18.5-4.8-26.8 0l-304.9 176c-8.3 4.8-13.4 13.7-13.4 23.3v352c0 9.6 5.1 18.5 13.4 23.3l304.8 176c8.3 4.8 18.5 4.8 26.8 0l304.8-176c8.3-4.8 13.4-13.7 13.4-23.3V415.2c0-17.7 14.3-32 32-32s32 14.3 32 32V688c0 32.4-17.4 62.6-45.4 78.7l-304.8 176c-14 8.1-29.7 12.1-45.4 12.1z" fill="#1296db" p-id="5143"></path><path d="M257.3 670.4c-17.7 0-32-14.3-32-32V385.6c0-17.7 14.3-32 32-32s32 14.3 32 32v252.9c0 17.6-14.4 31.9-32 31.9z m434.9-283.2c0-17.7 14.3-32 32-32h196c17.7 0 32 14.3 32 32s-14.3 32-32 32h-196c-17.7 0-32-14.3-32-32zM411.9 512a112.8 112.8 0 1 0 225.6 0 112.8 112.8 0 1 0-225.6 0z" fill="#1296db" p-id="5144"></path></svg>